<?xml version="1.0" standalone="no"?>
<!DOCTYPE svg PUBLIC "-//W3C//DTD SVG 20010904//EN"
 "http://www.w3.org/TR/2001/REC-SVG-20010904/DTD/svg10.dtd">
<svg version="1.0" xmlns="http://www.w3.org/2000/svg"
 width="260.000000pt" height="260.000000pt" viewBox="0 0 260.000000 260.000000"
 preserveAspectRatio="xMidYMid meet">
<metadata>
Created by potrace 1.14, written by Peter Selinger 2001-2017
</metadata>
<g transform="translate(0.000000,260.000000) scale(0.100000,-0.100000)"
fill="#000000" stroke="none">
<path d="M1835 2500 c19 -54 35 -103 35 -107 0 -4 -51 -19 -113 -32 -61 -13
-118 -26 -124 -29 -29 -10 -9 -85 54 -203 2 -3 -35 -6 -82 -7 -48 0 -89 -3
-92 -6 -7 -6 12 -150 23 -179 6 -16 -3 -17 -97 -15 l-104 3 3 -94 3 -94 -68 7
c-37 4 -81 8 -98 9 l-30 2 -9 -82 c-5 -46 -12 -83 -16 -83 -3 0 -40 11 -80 25
-107 36 -113 35 -138 -29 -12 -30 -24 -71 -28 -91 -3 -19 -9 -37 -13 -40 -4
-2 -43 12 -86 30 -44 19 -82 31 -85 27 -4 -4 -19 -41 -35 -82 -16 -41 -31 -78
-35 -82 -3 -4 -32 10 -65 32 -33 22 -63 40 -67 40 -4 0 -23 -34 -42 -75 -19
-41 -37 -75 -40 -75 -4 0 -25 14 -48 30 -70 51 -93 40 -122 -60 -7 -25 -16
-44 -20 -42 -3 1 -31 14 -61 29 -67 33 -82 27 -105 -43 -12 -33 -22 -49 -34
-48 -9 1 -16 -3 -16 -8 0 -5 10 -8 22 -6 16 2 26 16 37 50 24 70 28 72 100 38
34 -17 66 -28 71 -25 4 3 13 27 20 54 6 27 20 57 31 67 19 17 21 16 65 -14 24
-18 52 -32 60 -32 10 0 28 27 47 70 18 38 36 70 40 70 4 0 31 -16 60 -35 63
-43 83 -44 92 -7 8 40 51 143 58 142 4 0 33 -12 64 -26 97 -43 101 -42 132 53
15 46 32 88 37 93 7 7 34 2 84 -15 116 -39 116 -39 128 56 5 44 12 82 14 84 2
2 24 -1 50 -6 25 -6 68 -9 94 -7 55 3 53 -4 40 115 -8 76 -4 78 119 63 48 -6
89 -10 90 -8 2 2 -3 26 -10 54 -7 28 -15 73 -17 100 l-3 49 88 5 c48 3 88 7
89 10 1 3 -12 34 -29 70 -18 36 -35 79 -38 97 -6 29 -4 33 22 38 15 4 57 13
93 21 36 8 82 16 103 19 20 3 37 10 37 16 0 21 -73 219 -81 219 -5 0 7 -45 26
-100z"/>
<path d="M1845 2568 c6 -29 43 -126 52 -137 4 -5 133 131 133 140 0 9 -98 29
-147 29 l-45 0 7 -32z"/>
<path d="M2530 2593 c8 -3 27 -15 43 -25 l27 -19 0 25 c0 24 -3 26 -42 25 -24
0 -36 -3 -28 -6z"/>
<path d="M1713 2319 c-35 -11 -63 -24 -63 -30 0 -5 16 -41 35 -80 26 -50 41
-69 52 -67 18 3 103 152 103 181 0 23 -46 22 -127 -4z"/>
<path d="M1152 2129 c-43 -40 -37 -55 22 -52 25 2 46 -1 46 -5 0 -13 -130
-105 -138 -97 -4 3 1 11 10 16 38 21 45 70 12 83 -18 7 -62 -14 -88 -42 -10
-12 -42 -35 -72 -53 -52 -32 -72 -58 -59 -79 10 -17 37 -11 77 17 27 18 42 23
49 16 13 -13 -53 -71 -126 -113 -92 -51 -130 -50 -55 2 43 30 49 48 25 68 -13
11 -30 6 -105 -31 -49 -24 -89 -50 -89 -56 -1 -19 3 -17 90 28 44 23 83 38 87
35 4 -4 -2 -12 -13 -18 -11 -6 -30 -22 -43 -35 -32 -32 -14 -58 36 -49 40 6
144 71 191 120 60 62 16 102 -60 52 -71 -47 -41 -11 37 44 43 30 83 59 90 65
26 19 26 -5 0 -36 -31 -37 -29 -53 5 -57 17 -2 45 13 91 47 73 55 83 71 63 98
-12 16 -17 17 -46 6 -41 -16 -49 -10 -15 12 14 10 26 24 26 31 0 21 -12 17
-48 -17z"/>
<path d="M1260 2120 c0 -12 28 -25 36 -17 3 3 -4 10 -15 17 -15 7 -21 7 -21 0z"/>
<path d="M1558 2093 c-21 -5 -21 -10 -9 -66 6 -23 12 -54 16 -69 3 -16 11 -28
19 -28 26 0 147 142 133 157 -7 6 -137 11 -159 6z"/>
<path d="M1365 1833 c4 -32 10 -62 14 -66 5 -4 32 12 61 37 30 26 57 46 62 46
4 0 8 6 8 14 0 16 -43 26 -107 26 l-45 0 7 -57z"/>
<path d="M680 1770 c-12 -8 -11 -11 8 -16 18 -5 20 -9 11 -20 -14 -18 -7 -27
14 -18 21 8 30 34 16 50 -13 16 -28 17 -49 4z"/>
<path d="M1177 1724 c-3 -5 -8 -36 -12 -68 -9 -70 -7 -70 87 -4 54 38 58 43
42 55 -10 7 -25 13 -35 13 -9 0 -30 3 -47 6 -16 3 -32 2 -35 -2z"/>
<path d="M2019 1664 c-12 -14 -27 -16 -105 -10 -184 13 -345 -39 -864 -278
-214 -99 -260 -130 -294 -197 -24 -49 -26 -62 -26 -191 0 -125 2 -140 20 -158
11 -11 25 -20 30 -20 25 0 87 41 98 64 12 26 12 26 32 6 42 -42 114 -33 126
15 3 14 4 29 0 32 -3 4 -6 -3 -6 -15 0 -23 -34 -52 -61 -52 -10 0 -31 11 -47
25 -16 13 -32 22 -34 19 -8 -8 -28 81 -28 126 0 29 4 39 12 34 7 -4 8 -3 4 5
-11 17 2 62 25 91 12 14 18 18 14 10 -3 -8 4 -3 17 13 18 20 33 27 60 27 55 0
62 -16 49 -111 -14 -105 1 -138 60 -139 35 0 45 14 54 75 10 73 48 168 84 214
68 85 250 189 396 227 45 11 110 18 181 18 104 1 112 0 145 -25 48 -37 141
-79 174 -79 49 0 107 23 142 56 34 32 34 33 18 64 -14 28 -21 31 -46 26 l-29
-5 20 37 c24 44 25 65 5 82 -12 10 -21 10 -41 1 -22 -10 -28 -9 -39 6 -12 16
-18 16 -45 6 -27 -10 -35 -10 -47 2 -19 19 -37 19 -54 -1z"/>
<path d="M926 1544 c-9 -37 -15 -69 -12 -71 3 -3 44 13 92 37 59 29 83 45 76
52 -11 11 -109 47 -128 48 -6 0 -19 -30 -28 -66z"/>
<path d="M690 1438 c-17 -38 -27 -98 -16 -98 19 0 156 72 151 80 -6 10 -98 60
-110 60 -3 0 -15 -19 -25 -42z"/>
<path d="M1704 1470 c-49 -11 -97 -45 -161 -113 -63 -69 -118 -159 -109 -182
11 -29 45 -16 72 26 39 62 105 130 141 145 18 8 61 14 95 14 58 0 64 2 75 26
7 15 9 32 5 38 -4 6 -7 15 -7 21 0 12 -45 35 -65 34 -8 -1 -29 -4 -46 -9z"/>
<path d="M1941 1426 c-17 -20 -23 -92 -8 -103 19 -15 104 -36 116 -28 19 11
12 57 -14 90 -29 39 -78 60 -94 41z"/>
<path d="M471 1329 c-13 -38 -14 -79 -3 -79 19 0 102 32 111 44 12 14 5 26
-31 49 -41 26 -64 22 -77 -14z"/>
<path d="M1706 1331 c17 -4 37 -11 45 -15 8 -4 5 0 -5 8 -11 9 -31 16 -45 15
-24 -1 -24 -2 5 -8z"/>
<path d="M1634 1308 l-19 -23 25 20 c14 11 27 21 29 22 2 2 0 3 -6 3 -5 0 -18
-10 -29 -22z"/>
<path d="M1780 1296 c0 -2 8 -10 18 -17 15 -13 16 -12 3 4 -13 16 -21 21 -21
13z"/>
<path d="M280 1275 c-12 -14 -27 -95 -18 -95 14 0 93 32 105 42 11 9 8 16 -19
39 -38 32 -51 35 -68 14z"/>
<path d="M1822 1238 c7 -15 15 -23 17 -17 2 6 -4 18 -13 27 -15 15 -15 15 -4
-10z"/>
<path d="M1930 1239 c0 -30 31 -73 63 -90 12 -7 5 5 -16 25 -22 20 -37 42 -34
50 3 7 1 19 -4 27 -6 10 -9 7 -9 -12z"/>
<path d="M1735 1205 c-28 -27 -31 -46 -13 -78 29 -55 69 -52 94 8 18 45 18 51
-6 75 -26 26 -46 25 -75 -5z"/>
<path d="M92 1197 c-6 -6 -13 -24 -17 -40 -8 -32 6 -35 60 -13 41 17 44 29 13
50 -27 19 -42 20 -56 3z"/>
<path d="M1581 1164 c0 -11 3 -14 6 -6 3 7 2 16 -1 19 -3 4 -6 -2 -5 -13z"/>
<path d="M959 1139 l-24 -20 28 17 c15 9 27 18 27 20 0 8 -8 4 -31 -17z"/>
<path d="M2123 1092 c15 -10 34 -27 43 -38 14 -18 15 -18 4 3 -11 23 -47 53
-65 53 -5 0 2 -8 18 -18z"/>
<path d="M924 1026 c2 -51 7 -63 30 -83 22 -19 31 -21 42 -12 16 13 18 38 4
59 -7 11 -8 6 -4 -16 7 -39 -7 -49 -36 -26 -16 13 -25 35 -31 77 l-8 60 3 -59z"/>
<path d="M985 1029 c-4 -6 -5 -12 -2 -15 2 -3 7 2 10 11 7 17 1 20 -8 4z"/>
<path d="M2191 994 c0 -11 3 -14 6 -6 3 7 2 16 -1 19 -3 4 -6 -2 -5 -13z"/>
<path d="M1831 973 c-12 -10 -22 -29 -23 -44 l-2 -25 -60 24 c-72 29 -129 26
-204 -12 -60 -31 -97 -72 -150 -167 -71 -130 -108 -279 -70 -287 12 -2 28 19
57 75 61 116 119 190 164 208 56 23 157 19 268 -11 68 -18 103 -23 116 -16 11
6 34 5 63 -2 l45 -11 1 -90 c2 -118 1 -115 23 -115 16 0 22 11 31 57 23 106
-6 243 -50 243 -12 0 -34 7 -50 15 -28 15 -30 14 -42 -10 l-14 -25 -17 30 -18
30 30 0 c27 0 31 4 37 35 3 20 4 39 0 42 -3 4 -6 -5 -6 -19 0 -33 -16 -46 -67
-54 -33 -5 -45 -2 -61 14 -16 16 -18 27 -12 61 4 23 9 43 11 45 2 2 13 8 24
14 11 6 15 12 9 12 -7 0 -21 -8 -33 -17z"/>
<path d="M2191 934 c0 -11 3 -14 6 -6 3 7 2 16 -1 19 -3 4 -6 -2 -5 -13z"/>
<path d="M2155 872 c-16 -19 -43 -41 -60 -48 -16 -7 -23 -13 -15 -14 21 0 87
46 101 71 17 33 7 29 -26 -9z"/>
<path d="M723 770 c-13 -5 -23 -11 -23 -14 0 -7 40 6 46 15 6 10 6 10 -23 -1z"/>
<path d="M365 590 c-49 -16 -151 -49 -225 -72 l-135 -44 -3 -72 -3 -73 61 -67
c34 -36 91 -110 127 -164 l67 -98 878 0 c486 0 878 4 878 9 0 4 -34 40 -75 79
-54 51 -84 89 -104 132 -20 41 -31 55 -35 45 -3 -9 -11 -13 -16 -10 -6 4 -17
2 -24 -4 -8 -7 -18 -11 -22 -10 -5 1 -11 0 -14 -1 -3 -1 -22 -3 -42 -4 -21 -1
-41 -5 -44 -9 -4 -4 -13 -2 -20 4 -9 7 -19 7 -31 1 -12 -7 -25 -7 -36 -1 -10
6 -26 7 -37 4 -11 -3 -25 -3 -32 2 -12 7 -42 11 -108 14 -14 0 -31 6 -39 12
-7 6 -26 10 -41 9 -16 -2 -31 1 -35 7 -3 6 -19 11 -35 11 -16 0 -32 5 -35 10
-3 6 -17 10 -29 10 -13 0 -29 7 -36 15 -7 9 -21 13 -30 10 -9 -3 -23 1 -30 10
-7 8 -23 15 -35 15 -12 0 -28 7 -35 15 -7 8 -20 15 -30 15 -10 0 -23 7 -30 15
-7 8 -20 15 -30 15 -10 0 -20 7 -24 15 -3 8 -12 12 -19 9 -8 -3 -17 2 -20 10
-4 9 -16 16 -27 16 -11 0 -20 5 -20 10 0 6 -9 10 -19 10 -10 0 -21 7 -25 15
-3 8 -12 12 -20 9 -10 -4 -20 3 -27 20 -7 14 -16 26 -21 26 -13 0 -10 -18 5
-23 7 -3 5 -6 -5 -6 -10 -1 -18 4 -18 9 0 6 -9 10 -19 10 -11 0 -23 5 -26 11
-4 6 -13 8 -21 5 -9 -3 -19 4 -26 19 -11 25 -28 34 -28 15 0 -5 5 -10 12 -10
6 0 8 -3 5 -6 -4 -4 -13 -2 -20 5 -8 6 -22 9 -31 5 -10 -4 -18 0 -22 10 -8 21
-12 20 -119 -14z"/>
<path d="M495 610 c4 -6 11 -8 16 -5 14 9 11 15 -7 15 -8 0 -12 -5 -9 -10z"/>
<path d="M580 590 c0 -6 7 -10 15 -10 8 0 15 2 15 4 0 2 -7 6 -15 10 -8 3 -15
1 -15 -4z"/>
<path d="M625 570 c3 -5 11 -10 16 -10 6 0 7 5 4 10 -3 6 -11 10 -16 10 -6 0
-7 -4 -4 -10z"/>
<path d="M1905 540 c-12 -13 -15 -25 -9 -37 4 -10 8 -25 8 -33 1 -25 17 -17
39 21 32 56 3 95 -38 49z"/>
<path d="M710 530 c0 -5 5 -10 10 -10 6 0 10 5 10 10 0 6 -4 10 -10 10 -5 0
-10 -4 -10 -10z"/>
<path d="M755 510 c3 -5 11 -10 16 -10 6 0 7 5 4 10 -3 6 -11 10 -16 10 -6 0
-7 -4 -4 -10z"/>
<path d="M800 490 c0 -5 5 -10 11 -10 5 0 7 5 4 10 -3 6 -8 10 -11 10 -2 0 -4
-4 -4 -10z"/>
<path d="M840 470 c0 -5 5 -10 11 -10 5 0 7 5 4 10 -3 6 -8 10 -11 10 -2 0 -4
-4 -4 -10z"/>
<path d="M930 426 c0 -2 7 -9 15 -16 9 -7 15 -8 15 -2 0 5 -7 12 -15 16 -8 3
-15 4 -15 2z"/>
<path d="M1000 390 c0 -13 18 -22 24 -11 3 5 -1 11 -9 15 -8 3 -15 1 -15 -4z"/>
<path d="M1065 360 c3 -5 10 -10 16 -10 5 0 9 5 9 10 0 6 -7 10 -16 10 -8 0
-12 -4 -9 -10z"/>
<path d="M1130 339 c0 -5 9 -9 20 -9 11 0 20 2 20 4 0 2 -9 6 -20 9 -11 3 -20
1 -20 -4z"/>
<path d="M1190 325 c0 -10 29 -24 34 -17 3 6 -3 12 -14 15 -11 3 -20 4 -20 2z"/>
<path d="M1260 300 c0 -14 15 -19 29 -11 9 6 7 10 -8 14 -12 3 -21 1 -21 -3z"/>
<path d="M1338 278 c5 -5 16 -8 23 -6 8 3 3 7 -10 11 -17 4 -21 3 -13 -5z"/>
<path d="M1775 280 c3 -5 8 -10 11 -10 2 0 4 5 4 10 0 6 -5 10 -11 10 -5 0 -7
-4 -4 -10z"/>
<path d="M1400 275 c0 -10 29 -24 34 -17 3 6 -3 12 -14 15 -11 3 -20 4 -20 2z"/>
<path d="M1735 270 c-3 -5 -1 -10 4 -10 6 0 11 5 11 10 0 6 -2 10 -4 10 -3 0
-8 -4 -11 -10z"/>
<path d="M1478 258 c5 -5 16 -8 23 -6 8 3 3 7 -10 11 -17 4 -21 3 -13 -5z"/>
<path d="M1695 260 c3 -5 8 -10 11 -10 2 0 4 5 4 10 0 6 -5 10 -11 10 -5 0 -7
-4 -4 -10z"/>
<path d="M1558 248 c9 -9 15 -9 24 0 9 9 7 12 -12 12 -19 0 -21 -3 -12 -12z"/>
</g>
</svg>
